<?xml version="1.0" encoding="UTF-8"?>
<svg id="Layer_2" data-name="Layer 2" xmlns="http://www.w3.org/2000/svg" viewBox="0 0 50.04 46.99">
  <defs>
    <style>
      .cls-1 {
        fill-rule: evenodd;
      }

      .cls-1, .cls-2 {
        fill: #9a7fdd;
      }

      .cls-1, .cls-2, .cls-3 {
        stroke-width: 0px;
      }

      .cls-3 {
        fill: #fff;
      }
    </style>
  </defs>
  <g id="OBJECTS">
    <g>
      <rect class="cls-3" width="50.04" height="46.99" rx="12" ry="12"/>
      <g>
        <g>
          <path class="cls-2" d="M15.15,27.93l-.3-.22c-.3-.22-7.31-5.47-7.31-11.78,0-4.2,3.41-7.61,7.61-7.61s7.61,3.41,7.61,7.61c0,6.31-7.02,11.56-7.31,11.78l-.3.22ZM15.15,9.32c-3.64,0-6.61,2.97-6.61,6.61,0,5.1,5.29,9.68,6.61,10.74,1.32-1.06,6.61-5.64,6.61-10.74,0-3.65-2.97-6.61-6.61-6.61Z"/>
          <path class="cls-2" d="M34.88,27.93l-.3-.22c-.3-.22-7.31-5.47-7.31-11.78,0-4.2,3.41-7.61,7.61-7.61s7.61,3.41,7.61,7.61c0,6.31-7.02,11.56-7.31,11.78l-.3.22ZM34.88,9.32c-3.65,0-6.61,2.97-6.61,6.61,0,5.1,5.29,9.68,6.61,10.74,1.32-1.06,6.61-5.64,6.61-10.74,0-3.65-2.97-6.61-6.61-6.61Z"/>
          <path class="cls-2" d="M36.3,30.03c-.36-.3-.82-.51-1.32-.55-.49-.04-.99.05-1.4.28-.21.1-.39.25-.57.38-.16.16-.32.31-.45.49-.03.04-.05.1-.03.16.03.08.13.13.21.1h.02c.2-.08.37-.18.55-.26.19-.06.36-.16.54-.2.22-.08.45-.11.66-.12-.15,2.35-1.2,4.56-3.03,5.92-1.82,1.39-4.16,2.01-6.48,2.01-2.32,0-4.66-.62-6.48-2.01-1.83-1.35-2.88-3.57-3.03-5.92.22.01.44.04.66.12.18.04.35.14.54.2.18.08.35.18.55.25h.02c.05.03.11.02.16-.02.07-.06.08-.16.03-.23-.14-.17-.3-.32-.45-.49-.18-.13-.36-.28-.57-.38-.41-.23-.91-.32-1.4-.28-.49.05-.96.26-1.32.55-.36.3-.63.66-.81,1.09-.02.06-.01.12.03.17.06.07.16.07.23.01h.02c.5-.46,1.04-.82,1.61-.96-.06,1.23.14,2.5.61,3.68.5,1.21,1.32,2.3,2.32,3.15,2.03,1.72,4.7,2.44,7.27,2.45,2.57-.01,5.24-.73,7.27-2.45,1.01-.85,1.82-1.94,2.32-3.15.47-1.18.67-2.44.61-3.68.57.14,1.11.5,1.61.94h.02c.04.05.11.07.17.04.08-.03.12-.13.09-.21-.17-.43-.44-.79-.81-1.09Z"/>
        </g>
        <path class="cls-1" d="M15.15,19.39c-1.87,0-3.38-1.51-3.38-3.38s1.51-3.38,3.38-3.38,3.38,1.51,3.38,3.38-1.51,3.38-3.38,3.38Z"/>
        <path class="cls-1" d="M34.88,19.39c-1.87,0-3.38-1.51-3.38-3.38s1.51-3.38,3.38-3.38,3.38,1.51,3.38,3.38-1.51,3.38-3.38,3.38Z"/>
      </g>
    </g>
  </g>
</svg>